<?xml version="1.0" encoding="UTF-8"?>
<svg xmlns="http://www.w3.org/2000/svg" viewBox="0 0 32 32">
  <path fill="#000000" fill-rule="evenodd" d="
    M13.2 2.8
    L18.8 2.8
    L20.1 6.2
    L22.0 7.0
    L25.2 5.6
    L26.4 6.8
    L27.6 8.0
    L26.2 11.2
    L27.0 13.1
    L30.4 14.4
    L30.4 17.6
    L27.0 18.9
    L26.2 20.8
    L27.6 24.0
    L25.2 26.4
    L22.0 25.0
    L20.1 25.8
    L18.8 29.2
    L13.2 29.2
    L11.9 25.8
    L10.0 25.0
    L6.8 26.4
    L4.4 24.0
    L5.8 20.8
    L5.0 18.9
    L1.6 17.6
    L1.6 14.4
    L5.0 13.1
    L5.8 11.2
    L4.4 8.0
    L6.8 5.6
    L10.0 7.0
    L11.9 6.2
    Z
    M16.0 10.8
    L19.7 12.3
    L21.2 16.0
    L19.7 19.7
    L16.0 21.2
    L12.3 19.7
    L10.8 16.0
    L12.3 12.3
    Z
    M16.0 13.8
    L13.8 16.0
    L16.0 18.2
    L18.2 16.0
    Z"/>
</svg>
