<?xml version="1.0" encoding="UTF-8"?>
<svg xmlns="http://www.w3.org/2000/svg" viewBox="0 0 32 32">
  <polygon fill="#000000" points="6 5 19 5 22 8 22 18 17 18 14 21 6 21 6 5"/>
  <polygon fill="#000000" points="10 11 16 11 16 13 10 13 10 11"/>
  <polygon fill="#000000" points="10 15 18 15 18 17 10 17 10 15"/>
  <polygon fill="#000000" points="12 13 25 13 26 14 26 27 13 27 10 24 10 22 18 22 21 19 26 19 26 15 12 15 12 13"/>
  <polygon fill="#000000" points="14 19 22 19 22 21 14 21 14 19"/>
  <polygon fill="#000000" points="14 23 20 23 20 25 14 25 14 23"/>
</svg>
