<?xml version="1.0" encoding="UTF-8"?>
<svg xmlns="http://www.w3.org/2000/svg" viewBox="0 0 32 32">
  <polygon fill="#f5f5f5" points="5.18 10.62 5.18 21.38 7.9 24.1 10.62 21.38 10.62 10.62 7.9 7.9 5.18 10.62"/>
  <polygon fill="#f5f5f5" points="2 13.87 2 18.13 3.08 19.21 4.15 18.13 4.15 13.87 3.08 12.79 2 13.87"/>
  <rect fill="#f5f5f5" x="11.69" y="14.38" width="8.62" height="3.23"/>
  <polygon fill="#f5f5f5" points="26.82 21.38 26.82 10.62 24.1 7.9 21.38 10.62 21.38 21.38 24.1 24.1 26.82 21.38"/>
  <polygon fill="#f5f5f5" points="30 18.15 30 13.85 28.92 12.77 27.85 13.85 27.85 18.15 28.92 19.23 30 18.15"/>
</svg>
